<svg preserveAspectRatio="none" overflow="visible" style="display: block;" width="11.375" height="10.0008" viewBox="0 0 11.375 10.0008" fill="none" xmlns="http://www.w3.org/2000/svg">
<g id="Container">
<path id="Icon" d="M0.639427 0.880588V0.00560939H2.30529V0.880588H0.639427V0.880588M2.22675 3.95879L1.60305 3.34967L2.78093 2.17179L3.40463 2.78091L2.22675 3.95879V3.95879M5.68749 2.6362C4.95534 2.6362 4.33293 2.37987 3.82028 1.86721C3.30762 1.35456 3.05129 0.732153 3.05129 0H3.92627C3.92627 0.489851 4.09734 0.90585 4.43949 1.248C4.78164 1.59014 5.19764 1.76122 5.68749 1.76122C6.17734 1.76122 6.59334 1.59014 6.93549 1.248C7.27763 0.90585 7.44871 0.489851 7.44871 0H8.32369C8.32369 0.732153 8.06736 1.35456 7.5547 1.86721C7.04205 2.37987 6.41964 2.6362 5.68749 2.6362V2.6362M5.68749 0V0V0V0V0V0V0M5.25 5.02002V3.35416H6.12498V5.02002H5.25V5.02002M9.15945 3.9644L7.98493 2.78091L8.59405 2.17179L9.78315 3.3407L9.15945 3.9644V3.9644M9.06969 0.880588V0.00560939H10.7356V0.880588H9.06969V0.880588M0 9.98955V9.10335C0.335788 9.08465 0.590808 8.98649 0.76506 8.80888C0.939311 8.63126 1.28707 8.54245 1.80832 8.54245C2.3408 8.54245 2.70258 8.63968 2.89366 8.83412C3.08474 9.02856 3.36649 9.12579 3.73893 9.12579C4.12333 9.12579 4.41108 9.02856 4.60216 8.83412C4.79324 8.63968 5.15501 8.54245 5.68749 8.54245C6.208 8.54245 6.56978 8.63968 6.77282 8.83412C6.97587 9.02856 7.26361 9.12579 7.63605 9.12579C8.02045 9.12579 8.3052 9.02856 8.4903 8.83412C8.67539 8.63968 9.03418 8.54245 9.56666 8.54245C10.0879 8.54245 10.4357 8.63126 10.6099 8.80888C10.7842 8.98649 11.0392 9.08465 11.375 9.10335V9.98955C10.9218 9.96711 10.5937 9.86615 10.3906 9.68666C10.1876 9.50717 9.91292 9.41743 9.56666 9.41743C9.19796 9.41743 8.91713 9.51465 8.72418 9.7091C8.53124 9.90354 8.16852 10.0008 7.63605 10.0008C7.11554 10.0008 6.75376 9.90354 6.55071 9.7091C6.34767 9.51465 6.05993 9.41743 5.68749 9.41743C5.30309 9.41743 5.01535 9.51465 4.82427 9.7091C4.63319 9.90354 4.27141 10.0008 3.73893 10.0008C3.20646 10.0008 2.84674 9.90354 2.65977 9.7091C2.4728 9.51465 2.18899 9.41743 1.80832 9.41743C1.44636 9.41743 1.17264 9.50717 0.987169 9.68666C0.801699 9.86615 0.472642 9.96711 0 9.98955V9.98955M0 7.72353V6.83733C0.335788 6.81863 0.590808 6.72047 0.76506 6.54286C0.939311 6.36524 1.28707 6.27643 1.80832 6.27643C2.32883 6.27643 2.68762 6.37365 2.88468 6.5681C3.08174 6.76254 3.36649 6.85977 3.73893 6.85977C4.12333 6.85977 4.41108 6.76254 4.60216 6.5681C4.79324 6.37365 5.15501 6.27643 5.68749 6.27643C6.208 6.27643 6.56828 6.37365 6.76834 6.5681C6.96839 6.76254 7.25164 6.85977 7.6181 6.85977C8.0025 6.85977 8.29024 6.76254 8.48132 6.5681C8.6724 6.37365 9.03418 6.27643 9.56666 6.27643C10.0759 6.27643 10.4237 6.36524 10.6099 6.54286C10.7961 6.72047 11.0512 6.81863 11.375 6.83733V7.72353C10.9098 7.70109 10.5787 7.60013 10.3816 7.42064C10.1846 7.24115 9.91292 7.15141 9.56666 7.15141C9.19796 7.15141 8.91713 7.24863 8.72418 7.44308C8.53124 7.63752 8.16852 7.73474 7.63605 7.73474C7.11554 7.73474 6.75376 7.63752 6.55071 7.44308C6.34767 7.24863 6.05993 7.15141 5.68749 7.15141C5.30309 7.15141 5.01834 7.24863 4.83324 7.44308C4.64814 7.63752 4.28936 7.73474 3.75688 7.73474C3.2244 7.73474 2.8587 7.63752 2.65977 7.44308C2.46084 7.24863 2.17702 7.15141 1.80832 7.15141C1.45832 7.15141 1.1846 7.24115 0.987169 7.42064C0.789733 7.60013 0.460677 7.70109 0 7.72353V7.72353" fill="#A3CCE3"/>
</g>
</svg>
